<svg xmlns="http://www.w3.org/2000/svg" viewBox="0 0 512 512" width="512" height="512">
	<style>
		tspan { white-space:pre }
		.shp0 { fill: #01579a } 
		.shp1 { fill: #004370 } 
		.shp2 { fill: #ffa920 } 
		.shp3 { fill: #fe9000 } 
		.shp4 { fill: #ff5917 } 
		.shp5 { fill: #fe3700 } 
		.shp6 { fill: #ffffff } 
		.shp7 { fill: #e6e6e6 } 
		.shp8 { fill: #fed19c } 
		.shp9 { fill: #fee3c3 } 
		.shp10 { fill: #fef49c } 
		.shp11 { fill: #fedec3 } 
		.shp12 { fill: #fed49c } 
		.shp13 { fill: #fee7c3 } 
	</style>
	<path id="Layer" class="shp0" d="M256 512C114.43 512 0 397.57 0 256C0 114.43 114.43 0 256 0C397.57 0 512 114.43 512 256C512 397.57 397.57 512 256 512Z" />
	<g id="Layer">
		<path id="Layer" class="shp1" d="M354.93 137.61L509.45 292.13C511.12 280.32 512 268.27 512 256C512 253.4 511.95 250.81 511.87 248.22L378.1 114.45L354.93 137.61Z" />
		<path id="Layer" class="shp1" d="M285.72 510.27C397.98 497.29 488.12 411.7 507.93 301.67L266 59.73L246 92.49L335.68 182.17L304.72 256.98L171.21 123.47L157.07 137.61L296.44 276.98L265.47 351.79L126.09 212.4L93.33 232.4L250.03 389.1L246.79 396.92L171.21 321.34L148.05 344.5L233.23 429.69L225.01 449.56L285.72 510.27Z" />
	</g>
	<path id="Layer" class="shp2" d="M367.67 217.18C367.67 154.97 316.81 104.65 254.41 105.52C194.91 106.34 146.08 154.41 144.37 213.89C143.65 239.16 151.32 262.6 164.8 281.64C184.26 309.11 197.91 340.25 203.73 373.4L211.33 416.71L300.67 416.71L308.71 370.89C314.33 338.82 327.69 308.75 346.71 282.32C359.9 263.99 367.67 241.49 367.67 217.18Z" />
	<path id="Layer" class="shp3" d="M255.57 105.52L255.57 416.71L300.67 416.71L308.71 370.89C314.33 338.82 327.69 308.75 346.71 282.32C359.9 263.99 367.67 241.49 367.67 217.18C367.67 155.36 317.44 105.28 255.57 105.52Z" />
	<path id="Layer" class="shp4" d="M286.4 408.98L266.55 406.58L287.53 232.4L224.47 232.4L245.45 406.58L225.6 408.98L201.91 212.4L310.08 212.4L286.4 408.98Z" />
	<path id="Layer" class="shp5" d="M255.57 212.4L255.57 232.4L287.53 232.4L266.55 406.58L286.4 408.98L310.08 212.4L255.57 212.4Z" />
	<path id="Layer" class="shp6" d="M256 460.27L256 460.27C228.24 460.27 205.74 437.77 205.74 410.01L205.74 384.89L306.25 384.89L306.25 410.01C306.25 437.77 283.75 460.27 256 460.27Z" />
	<path id="Layer" class="shp7" d="M255.57 384.89L255.57 460.26C255.71 460.26 255.85 460.27 256 460.27L256 460.27C283.75 460.27 306.25 437.77 306.25 410.01L306.25 384.89L255.57 384.89L255.57 384.89Z" />
	<path id="Layer" class="shp8" d="M385.91 212.4L418.67 212.4L418.67 232.4L385.91 232.4L385.91 212.4Z" />
	<g id="Layer">
		<path id="Layer" class="shp9" d="M93.33 212.4L126.09 212.4L126.09 232.4L93.33 232.4L93.33 212.4Z" />
		<path id="Layer" class="shp9" d="M246 59.73L266 59.73L266 92.49L246 92.49L246 59.73Z" />
	</g>
	<g id="Layer">
		<path id="Layer" class="shp10" d="M255.57 59.73L266 59.73L266 92.49L255.57 92.49L255.57 59.73Z" />
		<path id="Layer" class="shp8" d="M363.95 344.49L340.79 321.33L354.93 307.19L378.09 330.35L363.95 344.49Z" />
	</g>
	<path id="Layer" class="shp11" d="M157.07 137.62L133.91 114.45L148.05 100.31L171.21 123.47L157.07 137.62Z" />
	<path id="Layer" class="shp12" d="M354.93 137.61L340.78 123.47L363.95 100.31L378.09 114.45L354.93 137.61Z" />
	<path id="Layer" class="shp13" d="M148.04 344.5L133.89 330.36L157.06 307.19L171.2 321.34L148.04 344.5Z" />
	<g id="Layer">
	</g>
	<g id="Layer">
	</g>
	<g id="Layer">
	</g>
	<g id="Layer">
	</g>
	<g id="Layer">
	</g>
	<g id="Layer">
	</g>
	<g id="Layer">
	</g>
	<g id="Layer">
	</g>
	<g id="Layer">
	</g>
	<g id="Layer">
	</g>
	<g id="Layer">
	</g>
	<g id="Layer">
	</g>
	<g id="Layer">
	</g>
	<g id="Layer">
	</g>
	<g id="Layer">
	</g>
</svg>