<?xml version="1.0" encoding="windows-1252"?>
<!-- Generator: Adobe Illustrator 19.0.0, SVG Export Plug-In . SVG Version: 6.00 Build 0)  -->
<svg version="1.1" id="Capa_1" xmlns="http://www.w3.org/2000/svg" xmlns:xlink="http://www.w3.org/1999/xlink" x="0px" y="0px" viewBox="0 0 512 512" style="enable-background:new 0 0 512 512;" xml:space="preserve">
<circle style="fill:#01579A;" cx="256" cy="256" r="256"/>
<path style="fill:#004675;" d="M287.524,510.067C414.035,494.53,512,386.71,512,256c0-0.31-0.011-0.618-0.012-0.927l-127.53-127.53  l-2.498,6.215l-35.106-35.106l-6.956,18.704l-36.875-36.875L74.333,256l34.134,34.134l-27.986,12.89L287.524,510.067z"/>
<path id="SVGCleanerId_0" style="fill:#EBEEF0;" d="M412.334,276.599L437.667,256l-25.332-20.6l19.184-26.424l-29.81-13.324  l11.64-30.506l-32.249-5.123l3.359-32.48l-32.48,3.359l-5.124-32.25l-30.507,11.64l-13.324-29.81l-26.425,19.184L256,74.333  l-20.6,25.332l-26.424-19.184l-13.324,29.81l-30.506-11.64l-5.123,32.249l-32.48-3.359l3.359,32.48l-32.25,5.124l11.64,30.506  l-29.81,13.324L99.666,235.4L74.333,256l25.332,20.6l-19.184,26.424l29.81,13.324l-11.64,30.506l32.249,5.123l-3.359,32.48  l32.48-3.359l5.124,32.25l30.507-11.64l13.324,29.81l26.425-19.184L256,437.667l20.6-25.332l26.424,19.184l13.324-29.811  l30.506,11.64l5.123-32.249l32.48,3.359l-3.359-32.48l32.25-5.124l-11.64-30.506l29.81-13.324L412.334,276.599z M256,314.333  c-32.217,0-58.333-26.117-58.333-58.333s26.117-58.333,58.333-58.333s58.333,26.117,58.333,58.333S288.217,314.333,256,314.333z"/>
<g>
	<path id="SVGCleanerId_0_1_" style="fill:#EBEEF0;" d="M412.334,276.599L437.667,256l-25.332-20.6l19.184-26.424l-29.81-13.324   l11.64-30.506l-32.249-5.123l3.359-32.48l-32.48,3.359l-5.124-32.25l-30.507,11.64l-13.324-29.81l-26.425,19.184L256,74.333   l-20.6,25.332l-26.424-19.184l-13.324,29.81l-30.506-11.64l-5.123,32.249l-32.48-3.359l3.359,32.48l-32.25,5.124l11.64,30.506   l-29.81,13.324L99.666,235.4L74.333,256l25.332,20.6l-19.184,26.424l29.81,13.324l-11.64,30.506l32.249,5.123l-3.359,32.48   l32.48-3.359l5.124,32.25l30.507-11.64l13.324,29.81l26.425-19.184L256,437.667l20.6-25.332l26.424,19.184l13.324-29.811   l30.506,11.64l5.123-32.249l32.48,3.359l-3.359-32.48l32.25-5.124l-11.64-30.506l29.81-13.324L412.334,276.599z M256,314.333   c-32.217,0-58.333-26.117-58.333-58.333s26.117-58.333,58.333-58.333s58.333,26.117,58.333,58.333S288.217,314.333,256,314.333z"/>
</g>
<path style="fill:#CED7DB;" d="M255.571,197.677c0.143-0.001,0.285-0.011,0.429-0.011c32.217,0,58.333,26.117,58.333,58.333  S288.217,314.333,256,314.333c-0.144,0-0.285-0.01-0.429-0.011V437.14l0.429,0.527l20.6-25.332l26.424,19.184l13.324-29.811  l30.506,11.64l5.123-32.249l32.48,3.359l-3.359-32.48l32.25-5.124l-11.64-30.506l29.81-13.324l-19.184-26.425L437.667,256  l-25.332-20.6l19.184-26.424l-29.81-13.324l11.64-30.506l-32.249-5.123l3.359-32.48l-32.48,3.359l-5.124-32.25l-30.507,11.64  l-13.324-29.81l-26.425,19.184L256,74.333L255.571,197.677z"/>
<path style="fill:#AFBDC4;" d="M256,348.264c-50.875,0-92.264-41.389-92.264-92.264s41.39-92.264,92.264-92.264  s92.264,41.389,92.264,92.264S306.875,348.264,256,348.264z M256,182.931c-40.291,0-73.069,32.779-73.069,73.069  s32.778,73.069,73.069,73.069S329.069,296.29,329.069,256S296.291,182.931,256,182.931z"/>
<path style="fill:#8FA3AD;" d="M256,163.736c-0.143,0-0.285,0.005-0.429,0.005v19.2c0.144-0.001,0.285-0.011,0.429-0.011  c40.291,0,73.069,32.779,73.069,73.069s-32.778,73.07-73.069,73.07c-0.144,0-0.285-0.01-0.429-0.011v19.2  c0.143,0.001,0.285,0.005,0.429,0.005c50.875,0,92.264-41.389,92.264-92.264S306.875,163.736,256,163.736z"/>
<path style="fill:#FEA831;" d="M6.233,312.333C31.898,426.614,133.971,512,256,512s224.102-85.386,249.767-199.667H6.233z"/>
<path style="fill:#FE8821;" d="M255.571,312.333v199.662c0.143,0,0.285,0.005,0.429,0.005c122.029,0,224.102-85.386,249.767-199.667  H255.571z"/>
<g>
</g>
<g>
</g>
<g>
</g>
<g>
</g>
<g>
</g>
<g>
</g>
<g>
</g>
<g>
</g>
<g>
</g>
<g>
</g>
<g>
</g>
<g>
</g>
<g>
</g>
<g>
</g>
<g>
</g>
</svg>