<?xml version="1.0" encoding="windows-1252"?>
<!-- Generator: Adobe Illustrator 19.0.0, SVG Export Plug-In . SVG Version: 6.00 Build 0)  -->
<svg version="1.1" id="Capa_1" xmlns="http://www.w3.org/2000/svg" xmlns:xlink="http://www.w3.org/1999/xlink" x="0px" y="0px" viewBox="0 0 512 512" style="enable-background:new 0 0 512 512;" xml:space="preserve">
<circle style="fill:#01579A;" cx="256" cy="256" r="256"/>
<path style="fill:#034A7A;" d="M510.255,285.88L387.56,163.184l-3.392,15.148l-85.835-85.835L62.667,337.165l174.119,174.119  C243.13,511.755,249.536,512,256,512C387.276,512,495.453,413.184,510.255,285.88z"/>
<path style="fill:#FCBF29;" d="M430.194,328.498H81.806v-51.14c0-96.204,77.989-174.194,174.194-174.194l0,0  c96.204,0,174.194,77.989,174.194,174.194V328.498z"/>
<path style="fill:#FEA831;" d="M430.194,277.358c0-96.205-77.989-174.194-174.194-174.194l0,0c-0.143,0-0.285,0.005-0.428,0.005  v225.328h174.622V277.358z"/>
<rect x="213.67" y="92.5" style="fill:#FEDB41;" width="84.67" height="241.33"/>
<rect x="255.57" y="92.5" style="fill:#FCBF29;" width="42.762" height="241.33"/>
<rect x="62.67" y="271.83" style="fill:#FEA831;" width="386.67" height="65.33"/>
<rect x="255.57" y="271.83" style="fill:#FE8821;" width="193.76" height="65.33"/>
<g>
</g>
<g>
</g>
<g>
</g>
<g>
</g>
<g>
</g>
<g>
</g>
<g>
</g>
<g>
</g>
<g>
</g>
<g>
</g>
<g>
</g>
<g>
</g>
<g>
</g>
<g>
</g>
<g>
</g>
</svg>